<mxfile host="app.diagrams.net" modified="2023-06-27T09:02:10.870Z" agent="Mozilla/5.0 (X11; Linux x86_64) AppleWebKit/537.36 (KHTML, like Gecko) Chrome/113.0.0.0 Safari/537.36" etag="8dHw3fradQTYhzHblpwv" version="21.5.0" type="github">
  <diagram name="Page-1" id="mlIwyJq4xI4mz4m-xWhL">
    <mxGraphModel dx="845" dy="496" grid="1" gridSize="10" guides="1" tooltips="1" connect="1" arrows="1" fold="1" page="1" pageScale="1" pageWidth="850" pageHeight="1100" math="0" shadow="0">
      <root>
        <mxCell id="0" />
        <mxCell id="1" parent="0" />
        <mxCell id="yUwluh3_jwDpta-TjZJO-21" style="edgeStyle=orthogonalEdgeStyle;rounded=0;orthogonalLoop=1;jettySize=auto;html=1;exitX=1;exitY=0.25;exitDx=0;exitDy=0;" edge="1" parent="1" source="yUwluh3_jwDpta-TjZJO-9">
          <mxGeometry relative="1" as="geometry">
            <mxPoint x="129.9999999999999" y="44.90909090909088" as="targetPoint" />
          </mxGeometry>
        </mxCell>
        <mxCell id="yUwluh3_jwDpta-TjZJO-9" value="User" style="swimlane;whiteSpace=wrap;html=1;" vertex="1" parent="1">
          <mxGeometry x="10" y="10" width="120" height="140" as="geometry">
            <mxRectangle x="10" y="10" width="140" height="30" as="alternateBounds" />
          </mxGeometry>
        </mxCell>
        <mxCell id="yUwluh3_jwDpta-TjZJO-12" value="nik" style="text;strokeColor=none;align=center;fillColor=none;html=1;verticalAlign=middle;whiteSpace=wrap;rounded=0;" vertex="1" parent="yUwluh3_jwDpta-TjZJO-9">
          <mxGeometry x="2" y="30" width="20" height="10" as="geometry" />
        </mxCell>
        <mxCell id="yUwluh3_jwDpta-TjZJO-13" value="fullname" style="text;strokeColor=none;align=center;fillColor=none;html=1;verticalAlign=middle;whiteSpace=wrap;rounded=0;" vertex="1" parent="yUwluh3_jwDpta-TjZJO-9">
          <mxGeometry x="7" y="44" width="40" height="10" as="geometry" />
        </mxCell>
        <mxCell id="yUwluh3_jwDpta-TjZJO-14" value="password" style="text;strokeColor=none;align=center;fillColor=none;html=1;verticalAlign=middle;whiteSpace=wrap;rounded=0;" vertex="1" parent="yUwluh3_jwDpta-TjZJO-9">
          <mxGeometry x="9" y="71" width="40" height="10" as="geometry" />
        </mxCell>
        <mxCell id="yUwluh3_jwDpta-TjZJO-16" value="role_id" style="text;strokeColor=none;align=center;fillColor=none;html=1;verticalAlign=middle;whiteSpace=wrap;rounded=0;" vertex="1" parent="yUwluh3_jwDpta-TjZJO-9">
          <mxGeometry x="1" y="86" width="40" height="10" as="geometry" />
        </mxCell>
        <mxCell id="yUwluh3_jwDpta-TjZJO-41" value="email" style="text;strokeColor=none;align=center;fillColor=none;html=1;verticalAlign=middle;whiteSpace=wrap;rounded=0;" vertex="1" parent="yUwluh3_jwDpta-TjZJO-9">
          <mxGeometry x="-2" y="57" width="40" height="10" as="geometry" />
        </mxCell>
        <mxCell id="yUwluh3_jwDpta-TjZJO-40" style="edgeStyle=orthogonalEdgeStyle;rounded=0;orthogonalLoop=1;jettySize=auto;html=1;exitX=1;exitY=0.25;exitDx=0;exitDy=0;" edge="1" parent="1" source="yUwluh3_jwDpta-TjZJO-10">
          <mxGeometry relative="1" as="geometry">
            <mxPoint x="400" y="90" as="targetPoint" />
          </mxGeometry>
        </mxCell>
        <mxCell id="yUwluh3_jwDpta-TjZJO-10" value="PMB" style="swimlane;whiteSpace=wrap;html=1;" vertex="1" parent="1">
          <mxGeometry x="230" y="10" width="120" height="140" as="geometry">
            <mxRectangle x="10" y="10" width="140" height="30" as="alternateBounds" />
          </mxGeometry>
        </mxCell>
        <mxCell id="yUwluh3_jwDpta-TjZJO-19" value="id" style="text;strokeColor=none;align=center;fillColor=none;html=1;verticalAlign=middle;whiteSpace=wrap;rounded=0;" vertex="1" parent="yUwluh3_jwDpta-TjZJO-10">
          <mxGeometry x="4" y="28" width="20" height="10" as="geometry" />
        </mxCell>
        <mxCell id="yUwluh3_jwDpta-TjZJO-20" value="user_id" style="text;strokeColor=none;align=center;fillColor=none;html=1;verticalAlign=middle;whiteSpace=wrap;rounded=0;" vertex="1" parent="yUwluh3_jwDpta-TjZJO-10">
          <mxGeometry x="19" y="42" width="20" height="10" as="geometry" />
        </mxCell>
        <mxCell id="yUwluh3_jwDpta-TjZJO-27" style="edgeStyle=orthogonalEdgeStyle;rounded=0;orthogonalLoop=1;jettySize=auto;html=1;exitX=1;exitY=0.25;exitDx=0;exitDy=0;" edge="1" parent="1" source="yUwluh3_jwDpta-TjZJO-11">
          <mxGeometry relative="1" as="geometry">
            <mxPoint x="399.9999999999999" y="230" as="targetPoint" />
          </mxGeometry>
        </mxCell>
        <mxCell id="yUwluh3_jwDpta-TjZJO-11" value="Role" style="swimlane;whiteSpace=wrap;html=1;" vertex="1" parent="1">
          <mxGeometry x="190" y="170" width="120" height="140" as="geometry">
            <mxRectangle x="190" y="170" width="140" height="30" as="alternateBounds" />
          </mxGeometry>
        </mxCell>
        <mxCell id="yUwluh3_jwDpta-TjZJO-18" value="id" style="text;strokeColor=none;align=center;fillColor=none;html=1;verticalAlign=middle;whiteSpace=wrap;rounded=0;" vertex="1" parent="yUwluh3_jwDpta-TjZJO-11">
          <mxGeometry x="4" y="29" width="20" height="10" as="geometry" />
        </mxCell>
        <mxCell id="yUwluh3_jwDpta-TjZJO-22" value="role_name" style="text;strokeColor=none;align=center;fillColor=none;html=1;verticalAlign=middle;whiteSpace=wrap;rounded=0;" vertex="1" parent="yUwluh3_jwDpta-TjZJO-11">
          <mxGeometry x="27" y="42" width="20" height="10" as="geometry" />
        </mxCell>
        <mxCell id="yUwluh3_jwDpta-TjZJO-17" style="edgeStyle=orthogonalEdgeStyle;rounded=0;orthogonalLoop=1;jettySize=auto;html=1;exitX=1;exitY=0.25;exitDx=0;exitDy=0;" edge="1" parent="1">
          <mxGeometry relative="1" as="geometry">
            <mxPoint x="190.5" y="205" as="targetPoint" />
            <mxPoint x="130" y="90" as="sourcePoint" />
            <Array as="points">
              <mxPoint x="150.5" y="90" />
              <mxPoint x="150.5" y="205" />
            </Array>
          </mxGeometry>
        </mxCell>
        <mxCell id="yUwluh3_jwDpta-TjZJO-23" value="Permission" style="swimlane;whiteSpace=wrap;html=1;" vertex="1" parent="1">
          <mxGeometry x="400" y="170" width="120" height="140" as="geometry">
            <mxRectangle x="10" y="10" width="140" height="30" as="alternateBounds" />
          </mxGeometry>
        </mxCell>
        <mxCell id="yUwluh3_jwDpta-TjZJO-24" value="id" style="text;strokeColor=none;align=center;fillColor=none;html=1;verticalAlign=middle;whiteSpace=wrap;rounded=0;" vertex="1" parent="yUwluh3_jwDpta-TjZJO-23">
          <mxGeometry x="4" y="29" width="20" height="10" as="geometry" />
        </mxCell>
        <mxCell id="yUwluh3_jwDpta-TjZJO-25" value="permission_name" style="text;strokeColor=none;align=center;fillColor=none;html=1;verticalAlign=middle;whiteSpace=wrap;rounded=0;" vertex="1" parent="yUwluh3_jwDpta-TjZJO-23">
          <mxGeometry x="46" y="42" width="20" height="10" as="geometry" />
        </mxCell>
        <mxCell id="yUwluh3_jwDpta-TjZJO-26" value="role_id" style="text;strokeColor=none;align=center;fillColor=none;html=1;verticalAlign=middle;whiteSpace=wrap;rounded=0;" vertex="1" parent="1">
          <mxGeometry x="417" y="226" width="20" height="10" as="geometry" />
        </mxCell>
        <mxCell id="yUwluh3_jwDpta-TjZJO-28" value="Pembayaran" style="swimlane;whiteSpace=wrap;html=1;" vertex="1" parent="1">
          <mxGeometry x="400" y="10" width="120" height="140" as="geometry">
            <mxRectangle x="10" y="10" width="140" height="30" as="alternateBounds" />
          </mxGeometry>
        </mxCell>
        <mxCell id="yUwluh3_jwDpta-TjZJO-29" value="id" style="text;strokeColor=none;align=center;fillColor=none;html=1;verticalAlign=middle;whiteSpace=wrap;rounded=0;" vertex="1" parent="yUwluh3_jwDpta-TjZJO-28">
          <mxGeometry x="4" y="28" width="20" height="10" as="geometry" />
        </mxCell>
        <mxCell id="yUwluh3_jwDpta-TjZJO-30" value="user_id" style="text;strokeColor=none;align=center;fillColor=none;html=1;verticalAlign=middle;whiteSpace=wrap;rounded=0;" vertex="1" parent="yUwluh3_jwDpta-TjZJO-28">
          <mxGeometry x="19" y="43" width="20" height="10" as="geometry" />
        </mxCell>
        <mxCell id="yUwluh3_jwDpta-TjZJO-31" value="total_price" style="text;strokeColor=none;align=center;fillColor=none;html=1;verticalAlign=middle;whiteSpace=wrap;rounded=0;" vertex="1" parent="1">
          <mxGeometry x="427" y="68" width="20" height="10" as="geometry" />
        </mxCell>
        <mxCell id="yUwluh3_jwDpta-TjZJO-33" value="" style="endArrow=classic;html=1;rounded=0;" edge="1" parent="1">
          <mxGeometry width="50" height="50" relative="1" as="geometry">
            <mxPoint x="130" y="40" as="sourcePoint" />
            <mxPoint x="230" y="60" as="targetPoint" />
            <Array as="points">
              <mxPoint x="160" y="40" />
              <mxPoint x="160" y="60" />
              <mxPoint x="180" y="60" />
            </Array>
          </mxGeometry>
        </mxCell>
        <mxCell id="yUwluh3_jwDpta-TjZJO-34" value="Mahasiswa" style="swimlane;whiteSpace=wrap;html=1;" vertex="1" parent="1">
          <mxGeometry x="610" y="10" width="120" height="140" as="geometry">
            <mxRectangle x="10" y="10" width="140" height="30" as="alternateBounds" />
          </mxGeometry>
        </mxCell>
        <mxCell id="yUwluh3_jwDpta-TjZJO-35" value="nim" style="text;strokeColor=none;align=center;fillColor=none;html=1;verticalAlign=middle;whiteSpace=wrap;rounded=0;" vertex="1" parent="yUwluh3_jwDpta-TjZJO-34">
          <mxGeometry x="4" y="30" width="20" height="10" as="geometry" />
        </mxCell>
        <mxCell id="yUwluh3_jwDpta-TjZJO-38" value="user_id" style="text;strokeColor=none;align=center;fillColor=none;html=1;verticalAlign=middle;whiteSpace=wrap;rounded=0;" vertex="1" parent="yUwluh3_jwDpta-TjZJO-34">
          <mxGeometry x="4" y="43" width="40" height="10" as="geometry" />
        </mxCell>
        <mxCell id="yUwluh3_jwDpta-TjZJO-39" value="payment_type" style="text;strokeColor=none;align=center;fillColor=none;html=1;verticalAlign=middle;whiteSpace=wrap;rounded=0;" vertex="1" parent="1">
          <mxGeometry x="436" y="82" width="20" height="10" as="geometry" />
        </mxCell>
      </root>
    </mxGraphModel>
  </diagram>
</mxfile>
